<mxfile host="app.diagrams.net" modified="2023-10-18T13:50:29.417Z" agent="Mozilla/5.0 (Windows NT 10.0; Win64; x64) AppleWebKit/537.36 (KHTML, like Gecko) Chrome/118.0.0.0 Safari/537.36" etag="a6MD5xcidHOWqym63pGp" version="22.0.4" type="device">
  <diagram name="Page-1" id="mhsStjzkOhZaZQrf6CmR">
    <mxGraphModel dx="1290" dy="1634" grid="1" gridSize="10" guides="1" tooltips="1" connect="1" arrows="1" fold="1" page="1" pageScale="1" pageWidth="850" pageHeight="1100" math="0" shadow="0">
      <root>
        <mxCell id="0" />
        <mxCell id="1" parent="0" />
        <mxCell id="juOs5ffqWeah5ZlfXDr1-1" value="&amp;lt;&amp;lt;Root&amp;gt;&amp;gt;&lt;br&gt;&amp;lt;&amp;lt;Entity&amp;gt;&amp;gt;&lt;br&gt;Edifício" style="rounded=0;whiteSpace=wrap;html=1;" vertex="1" parent="1">
          <mxGeometry x="317.02" y="79.34" width="120" height="60" as="geometry" />
        </mxCell>
        <mxCell id="juOs5ffqWeah5ZlfXDr1-8" value="&amp;lt;&amp;lt;Value Object&amp;gt;&amp;gt;&lt;br style=&quot;border-color: var(--border-color);&quot;&gt;Descrição do Edifício" style="rounded=0;whiteSpace=wrap;html=1;" vertex="1" parent="1">
          <mxGeometry x="118.49000000000001" y="69.4" width="120" height="60" as="geometry" />
        </mxCell>
        <mxCell id="juOs5ffqWeah5ZlfXDr1-9" value="" style="endArrow=diamondThin;endFill=1;endSize=24;html=1;rounded=0;exitX=-0.029;exitY=0.384;exitDx=0;exitDy=0;entryX=0.992;entryY=0.536;entryDx=0;entryDy=0;exitPerimeter=0;entryPerimeter=0;" edge="1" parent="1" source="juOs5ffqWeah5ZlfXDr1-1" target="juOs5ffqWeah5ZlfXDr1-8">
          <mxGeometry width="160" relative="1" as="geometry">
            <mxPoint x="877.02" y="349.34000000000003" as="sourcePoint" />
            <mxPoint x="1007.02" y="234.34" as="targetPoint" />
          </mxGeometry>
        </mxCell>
        <mxCell id="juOs5ffqWeah5ZlfXDr1-10" value="&amp;lt;&amp;lt;Value Object&amp;gt;&amp;gt;&lt;br style=&quot;border-color: var(--border-color);&quot;&gt;Nome" style="rounded=0;whiteSpace=wrap;html=1;" vertex="1" parent="1">
          <mxGeometry x="167.5" y="-20.599999999999994" width="120" height="60" as="geometry" />
        </mxCell>
        <mxCell id="juOs5ffqWeah5ZlfXDr1-11" value="" style="endArrow=diamondThin;endFill=1;endSize=24;html=1;rounded=0;entryX=0.5;entryY=1;entryDx=0;entryDy=0;exitX=0;exitY=0;exitDx=0;exitDy=0;" edge="1" parent="1" source="juOs5ffqWeah5ZlfXDr1-1" target="juOs5ffqWeah5ZlfXDr1-10">
          <mxGeometry width="160" relative="1" as="geometry">
            <mxPoint x="377.5" y="79.4" as="sourcePoint" />
            <mxPoint x="337.5" y="59.400000000000006" as="targetPoint" />
            <Array as="points" />
          </mxGeometry>
        </mxCell>
        <mxCell id="juOs5ffqWeah5ZlfXDr1-12" value="&amp;lt;&amp;lt;Value Object&amp;gt;&amp;gt;&lt;br style=&quot;border-color: var(--border-color);&quot;&gt;Código" style="rounded=0;whiteSpace=wrap;html=1;" vertex="1" parent="1">
          <mxGeometry x="317.02" y="-20.599999999999994" width="120" height="60" as="geometry" />
        </mxCell>
        <mxCell id="juOs5ffqWeah5ZlfXDr1-13" value="" style="endArrow=diamondThin;endFill=1;endSize=24;html=1;rounded=0;entryX=0.5;entryY=1;entryDx=0;entryDy=0;exitX=0.5;exitY=0;exitDx=0;exitDy=0;" edge="1" parent="1" source="juOs5ffqWeah5ZlfXDr1-1" target="juOs5ffqWeah5ZlfXDr1-12">
          <mxGeometry width="160" relative="1" as="geometry">
            <mxPoint x="387.5" y="89.4" as="sourcePoint" />
            <mxPoint x="387.5" y="53.400000000000006" as="targetPoint" />
          </mxGeometry>
        </mxCell>
        <mxCell id="juOs5ffqWeah5ZlfXDr1-14" value="&amp;lt;&amp;lt;Value Object&amp;gt;&amp;gt;&lt;br style=&quot;border-color: var(--border-color);&quot;&gt;Dimensão" style="rounded=0;whiteSpace=wrap;html=1;" vertex="1" parent="1">
          <mxGeometry x="447.5" y="9.400000000000006" width="120" height="60" as="geometry" />
        </mxCell>
        <mxCell id="juOs5ffqWeah5ZlfXDr1-15" value="" style="endArrow=diamondThin;endFill=1;endSize=24;html=1;rounded=0;entryX=0.5;entryY=1;entryDx=0;entryDy=0;exitX=1;exitY=0.5;exitDx=0;exitDy=0;" edge="1" parent="1" source="juOs5ffqWeah5ZlfXDr1-1" target="juOs5ffqWeah5ZlfXDr1-14">
          <mxGeometry width="160" relative="1" as="geometry">
            <mxPoint x="387.5" y="89.4" as="sourcePoint" />
            <mxPoint x="382.5" y="-6.599999999999994" as="targetPoint" />
            <Array as="points">
              <mxPoint x="507.5" y="109.4" />
            </Array>
          </mxGeometry>
        </mxCell>
        <mxCell id="juOs5ffqWeah5ZlfXDr1-16" value="" style="shape=stencil(lZ3Zshw3kkS/hq9l2Jfnnpn/kJmoJq01ooxiz0z/fQNDq6p73bMOyDctEXUzkUAsHh6BD/lvf3365c+PH1L469vXL//4+L+ff/326UP+jw8pff7j08evn7+tf/qQ//ND/ttvX75+/PvXL//849fv//7nL1ty/9N/f/mf/Qv/912vzFsMWyuFf33/L/HWx///h//6Lv/75z/eyo9bbSrfQb7fRlL5hvKp/Ix8u9Wfkq/31/th+WDrU0G+3JKtD8nnW7XnofVPt6nyg54/3YquzyT59b/fy6dbYPnSRD7Sfgj6/OmW6H3DrVSRz/O1fJ63MUW+RpRPJk+/P25Nn6clkO+3qb/fCspnXX+Ub7em64/y9Ta7ysP+XPLJfp/ki57Hg3y+jazysB+WvNirdOu0/mu76PsO2g/Rv++k9Qx6XtYD0vMEXc98y3C+0rxvr6d8yygv9irfJsmPW4nv5JcBg+dPy54Pka/0+2s/V5EfJN9u4718xfVc8nmKfAb7s/73zCLfYD+s/y32rd4G7If1enLe2y3Q+67lSyKf+PeDyhf6/eVfgsjj+6a7e3jKk//a5ljlZwD55d7en5fO6xP1vPdbpOcJup9XQAH7Ia7z1UU+g/2J4+5un/IV3jea/e9on5d80OcZ9PvtvhxPefLvcdnz9+szbpHki/rHgecr5lsJIk/+ND7c7VN+wHmPUe3PMni0nvGWg8gnet9wdw9P+UL7wfbbvHU4X0tevu9E/7J+7f3yrB9I8Pvzbo3fyFP8M+/R1xt5sm/zflof8hGfZ+hxX/K0H4aGe2uDkH1Yu7eoPPmjx2l6yOdbgO/bbyWpfIf16Wqe1wEqsN+abv91QDOsZ7t7w4d8Q/l6tzYP+X7fsC/ko+yHcU9QruPze/T1kJ+cv+hxXAY+gH3Llo6k+xO+kG8STnJ8ldV9Jf5e+Z7dPORXgAD2cO2u9+Zh+2vy75a+LH9E/lHN1T4RsD5Jz+M+0RRf3XpQ+UH+9x69P8LPcE9QXsm/X88VgPP6SLqzAvxE8YaG80t+4vvKeVkJB8ZLFp4X9C9LPqg85e9J4YGVkPH6CDyzEkTyj0nTtZ1Q4vet7/fbSlgT2PN0K1PlJ8vL84/7DnwlL88z73/xhbyk1yUczld6vz9LxHhpWaep8pPyEQ1vS0I8LWl6twEkin/u0fhDfu1P+L5R/eOSnygv9r/U+w58IS/nsTSM56Pu5yVP/tfgqNLRP0a1/+WR4L6QT/L8g+NDjU/KxHgjavyw5Dvsz6D+ogb070Hhz/p4whfyYp9rxPwu6PeqCc9vuHvPh3zGeDVoelELnt+g571WxDeCxie1HdZH4Jy68lN8/iTwA+df4f60D/mJeGnQ9K4FjE9cPiL+5vLLn/L7iny5W7wflK/oT219WrsDTq/k3++HxvGVfd827l/wlbzAPxPzF9ufjePnoHBXD3cA6dV5Ebglov0P6t97wvh8yXeVJ7woaHzeT+e9y/Ow/wrqv5Y8+d+gcEKvB3sl8HlvWI+IBucw3hU1/1ryFH9Gzd87x/9R4fAlT/h5VPvcD/iJ7YeJeHvU/GI8TsSr+CSrPPmjqOWmEdFfr3hMfn/tf4wnFR5jf5fuf/0hn/F9LT8aBzxf4fNREJ/MGm+MesjHU1B5ykey4idLnuKrrOd9ML5R7t72jTzWczX+HB3jgarna8kTvtc0Ph8D8bGm+fvg89g1Px0Tn3/YfnsA3j+GB85wRzBe4plVFSghXAq9qQJFKNFC+qVQKWVI94jqxxUUU2anGrOiEDPgKdggYFcFClOeKODbZaVVahcvTRsvdkVylwJmYl1Tja1AqzTukcBbBXokq3UeFDx7OCnEi2Wl8H77A38H8h9J6z0zcEHPCuCHA7RN2E/tpWXDqr10IR/VNCjdCvRI/WKVCOXfRSp7BzJLu45gR5Ty4l0IcQUidgRFApYCIZ05quuZHIoshWHLSrW6nLQ2PB/smWuFrGjDPKDr5m5PCkXz17OCAEQnhaoI+1aAL70UBFLdCrRK1Y5ovEd91wrGMZhc9FoK3RQymMoNoto7UFk/P7KCNwqV6hBDA72lQAdoKRT70oOZUWrImDq2qVdVFSi3zlarXwpkyEq4b4Q3CoROLgVhS0yGYzedzV6a8NJigONkwlAxRHYpkH8oyZY1Y0lrI85ZFahmU7KCLkuBgvqSteo0C544Z1EuBfzSRWmmS4Hi9FI1MZmViY5NK3lLgZDWpSCh+qxcGu1aa5iNuZQrIjMFils3Vl1UgdhYS0FNZcd0uEyt90zG15bCrKpABfwa7vycNwqEOFWDvJcCpdAbEZdlHXcU55VCNQUyZBtDn6pA27sm263j7vVeKQhNaQ7cfDUbT2agIaseOkzcGtVS9aVAXrR60jSZ61CMuzORzFWrJU0T87iloP5hom1dCpo0MZ+oNstQuKC5FHR7T0R8alfIaivQsnaLWw8KHjocXnpacHL4DlNhnP2l4cQ1q+ssBcp2mwG9+zyAbd11EztxxAxvxkzeVgPMTMv38/XGkA1WcMtHUEvzE9eRPdCqJX5ML10KGiQ2rH+1ZieuIkDWup3pysvq27sgBbEN5dgtBeJEtmmOPWMovRTUP2T0Dz1YlpXQx/VotMWEW2OXgSz2JuJQN+bQIUPp2exSxCO6FDyfpkigF8vjGDnZtSNDW3FZ6wXcSta7N4VPl0KgR7KocgxeVmuoWgpUgV0KWkLoaMi6Y8wdU5o+lcQ4GsJFfaohG8xqGgYMjke8f61gMd8oyDMZRqxZCkhUNabYyFjJ3IUheaSETnEU5RKthyTce5SLYhqSc6uyxdaXoc23PpPkcWuzUHCyFCQdWNuR+JvDgJB1Qgig3fUYeSSuEC8FCeF6xtRyneAq75AwU9yArxStGcHayKSwEph1vk3v+823nBgBUtNqKMsRk+VbCgJTLFdPedz2aO83X2NMYDlZScBXBEWlvqUgaVmL6OM2AvDezKwokI7orBoJVI4ql8J8/w6b/kOP1BTMWdF4hgO0EQBRaNwA0NQIrJyFgPInAvBGgRzK7JrS7MyOVqlrwWIlmxSRLYU2VYFYwTtwNpoaGbKNAAiPLPJ5GHqmlwKFoXOoua/h9Eiy+crEdGDnI1MVcLcODbA2gETfYSjbonRkk+0kTLoPG9LJ5lTosTA/75kXPhQqOpSdecpfKOgUn+n2QyFjGDqtNFUSVpqmZbuFSZhzKjZTAgK0W0Fo8kzbmRaR7cbow18wIjj6h3kH3h8KDZkyW+H9h9ulJP4LzvU/rJKS37n5e28+WdaICcc+D+93aw4cCQyFgNPg/q2hTnE3MPJfkIrfLg/TspptTZV9XLcRAgXx1mnUhU1jokdqeuI2j55e2tqsNtGO/kK1vqPAPq6q5duNU/ThrLE+Mt66AiwJpePBeud7SPhQ6Ox2rVkmduQ6rDBUwp/Y2GpY929smFpO4w/HiiWR4Q2QBXG+nT9MVSDHPnyiScYW4GEtvTFhz8ym7GVVwKQpK+EpcjF4JGvzi0i0Gda3EQNWXoeVdZ6dsq8wAfnSE1d1JZ5av8MT3Zu6xIGlsm6DAgZWBlbWqYgDgyZW0enooVcKqbk65gHdmPQdib7tAYc/5al+2rri4xzpOfDb8H1Xuimdww2JuBvrlmQPB2u0rDSThvFLs87Mhta3GfO4YaPHymWrytP+2QUNHZRBCUzzzhyEGFbmK4MjKpehptaiK/qOavuNYZtq+VRBUkPt+r0Khpu1WyaCRNmVhmvnJzLeqrGUmCheqxJLOCZaObiwPhLGH7t8KyER1yWzMgES2pNdsdZBPWRPajLHjcH7Sr+FPBR5P0cFgyI2WlajDsWfJD5wtWMzK95/L+YClqG/z4MdylD/xYzMndnr7yPLqCv+zZTpJS+TEZi0uuW7yNN52fL6vhTGXcr/5PMg5enifSn+KQZ8B6zHXX0v4mE+kZsflu/2PPy+wgk7vm/X9Sfg50qe2CaX8szW6rqelNpveT2/SB/rWj89npemz386j/Y8/PzNnof3W9X9QznJ1fkioPvyPB6ex/YPv689PzLfLtaHSpTFOnm40WbLqz05nd+fkh/qvwLmR8Ww3oN9nu5fKH7e/lF/H/110Hg4IMeiOrTA9DXrVIyneCarPFKakhaUI2KLu08+iTzlRzt+08GGRDTY8aHGY3Qea1VGSWKGYjMQDzHt2mySC+cLxqbNWE6pBltmfp5hdQLmfA4llPHgxGpM2oKD4FrQzsOK37dZp/eBJmWTKSpy+lq0QiRCfc06rXjQ4s6vdZAjxcMta7zUEALe+IAOciReQTP8pzF+0nT9G/rHZva88WCxoZ0JzMzrPhnhiC8pHoV4nTVZMrFj42M2OJF+v+r3GsxPM97sQK5wtwowE6o3PinstPsLvQJAleKNeNSIGm9EbsccSQ36UqAT+ew0fwP6kgsYxp9YCoilNy2SR+7PGcZdjpnHDw5tZYwZzcqYplAQ53j25T4UKtdlolJrlkJjBfEcsTEtxdF6bvOYNrTzMCVwc3Fklfi0LQXJNuLgl64Kr8XJdfuq+dghYHdqTToUyZsu62G2++w6zCMlLLNMw0j2PAR6h2FBVGH+hI173m6NFXRZO5Kd51RGaxo4UW4XyeWlJ1qNXYaXuv2hOOvMAB4SuhSE+JIPBKSp4HQ+GAHLbja7Af5CDBbfbQIF8yEUQB5MEjQEP/OsR3/rEniY7VSM9zAdb04D5bm9ck5FWUrG+YoX3JqC/QV798nEOK4wb0KRjbyjNqZpLmjl8kiws1LoYYjdPqPyHQYWRzaxS/4Cd1ZtsyHVIJ7MMIfCn/UwiNjyr8oA/SaySIKReJTy0FV61ihemW8JcXcRhFbJeYs8HW1TZYYqIGuk20tXnFe1nJwYpsp50vaKURUoUV0KOsKvM8Gu2Xfg0vqsCl3XeSLjCMep8cSYZ3PxQ4Gvbdn9zpIdZuY4ZSMvF8SPnn3nD4XK1jspLbd1Diutw23lmES5eE56eKRwXBOYNg3v2af0KlqXL925ijlsfvnKMwkm2QmEpKE8oHtYXaMzUWD4xP/OZJx2McON7NLKy8TH9YledBTN/EbgHglL1kfESGBkY8skzsuSDQbjIQXDJ7/xARpRG0NGxQrBCIpwDYas9ig8+QuM4fRpy9qxSLC7a6x3i5zi2moSwo2BZYtuZP4xeOC++YcxkM3Wm410m9yaWO2lJyZBS0GpYMc+QAnhZmDwJ2u8NCOih0tBmMK7ZYcUko1R40Gd3fhFu+OTXtpGP05G6LsPWuDZ+91nx3Ga1YzMvztvScGiynlA0btWYXZsQDC60YAmDxBt1qAzuYOhVZtOx92Se2KuvMOhi7tYQ3NnbN9nlnUm8/lgqoFQYrsaeIFzF60890xyXikEU0AAPtjmm1zh8nFFPNu3WnCyM+xDDcoVqKh3NcqBqiaXwyLIel+OozgoiEN5A3Vca9iB+AENH9uBD1Vtv04c1bbTMHttpKMVG8UzEepbCjrLajKhMWtsPCdXHLMNXZqYK+50OKlCAnNcfeQF3960m+zEWHJ7SzVW7OS+pBrNLQ6Ec/Y4ITdlVFi2pGbyiOYyLXjoGH0XQ5j2SCRSMG7gYehSGZqzT75Wza99nY3nonWj8ze0rsV6ejagzxO/BN6cHK4XY9ROpjQXNwKVOWrFgofCj5QVMHo2Ob9SkBLEIWIq6eIvECS1x83JOzBxokStQy4FyndL1ALBBkd4ip8OXcpoyEqwEcPcP1yC1r9mxsQsT61/Tc53szW6zoT17w3uT1XAyd+GbMyEjNl9c49NU6TGvmwUusPMmGwFs8mk7j1o04aFkuXLhp3MyMta7aX5AruloClHRNt6OfCUou/LkaqUyV0ObUWFq7GwBwUfPItj4e0eqdPAUx+ey9DgxXhe7r3N4SIFpxwlTRv7F3nU87jYrThMupvL4ra7PYjZBwDTIzVLariElzyU5jHJl+OqKdC9HIhNmO7lyG2K+S6HeuOlyldjw3G+9dVgcrwW62r0OSpcDVdHhavx7RQ6XA6Ip4gsNjNkfPffHnJvL42XkVjP3mEvXQ7qJ1ZwtPsXJyPfF5cN8HzrGC1YPyh4whGwcy+GC3gTi4TGVOMbGRx1YOaZdbY8yzbXSIt13k40k9WmtDG3yK9AHhztacV/cIGm2B0gfEdiNvy6cWxoz9/4znOrhPAdLMmYkVwz9slm5fD7sn9GYUer4cvI+H2TGq4lj3dEW1kmYWtLtIpGRHqddWLvUhP+vt6Zc7CjdkcNt1L5HVM8zzXqwKfOo4Gj2p8+DncSCt6xRxDynYdJ5Wk9bThmb1jd9zvKGCiwOmCvhzsAJdvcgynxjjstQfOdtEHdaudc0+646+l0R5+Nq+M79MRFdo6egkbubR6eX8e2MfQf7o3FD/lxuGNQkv3G1PWgnRKN7bMx+453Hqr86U5FlT/d2ajypzshVZ5bDy0+qRPBRFvPOg53cuqsNm5NCMYvakjetP1ZmShg+79yq5Df+ZmRbBdsvl7Cor/foRox7PZOIc4Rg3babO4frr9yNrngH3RAbeHRLEGz6MJ3slnn/7NX9sf8aeH9Zv668LUNdmfjE8p+FT8YQ5X2j3VqlYIgmt/hXPC8RKUqFIZjo33fhDyzqPF/iYc71cX+LHkaNWGjrwu3xiadlJEnxpOWQmZmzCfdb5kvtEjqrzOP6bJ4OzPhIGn8kLkVz+7MzLw/k8YzuWBrWrKpewXPe9LRU5lbRf3O+YSgguU7OWErWNLScGZsNOl5zwFbh5NNZplIikmavySO/5N2pu1WPPy+UnJKHfNxKzvvVktcT8l/NwKA+bi27fCdw1kRnf0LhGVbZzXPki0K6iaGyQyviIcrRDS+inwRhXVaRr4UqFr/WkVMrel67pF8xMEyPkjB/Wad4ZFHK9nklMiluK54dORpk8MmBRzmtlvnJ48LtwHmkUcpTJs/yKN0bGJuPNC8rbqEcNoFnonbOfpNjnx1arCyDMNFThRG1mK0eGagO332wD7lKX2MWf3X4Itci+5/Dh/WabVObNo+uw4g+AmHt13z8c5349rloR3dabQx1h0p/9FawhqXxCyfargfPL9ouJ4pKn51CMeSEo6YZZ6STwpAODZrcYuv8NmDNKQdB8l3yao8lcOTomymyutjk0oqX4drfEOeZ+zX5xYOz5tenVC4fNnVX/DdiMm4WAwXJZucmJG2moxNlvm2YJt/nrG8k4NNoMb+4Gx4csL1XNG1zm7G589J/QtP2812b1fCyWLPXuM38hRO2mTohOFzruq/jvJibw/yTYuuB/mu54XTo2zx1UF+6KStA23JrutKCDdm62rmyZWbbSazEJgaafhVZJJg1PyR4b0StQcoYnmhWD4bsXy0W7b1+XHyXVb7cJikaZfFMm+nVMWrj/Jdn4fSx43m6fqjvA8IP8kP/V4oPywf5MmG0yejIdfXLi04//5Pfa+p+fhxsqpOlUF4qVj7PMMtxaiZEf3FlTzSVy+eB8/jxfvi5NaL9cSrki++F409udoPyEa/2G94T/JRfv3Dn798+/T9X377/Pvvf337+uUfH9/+/9++fP34969f/vnHr4//9NenX/78uP7t3w==);lineShape=1;" vertex="1" parent="1">
          <mxGeometry x="99.99509650167329" y="-50.000064306831376" width="491.843343546876" height="222.96076607211398" as="geometry" />
        </mxCell>
      </root>
    </mxGraphModel>
  </diagram>
</mxfile>
